# xmcd
#
# Track frame offsets: 
#        150
#        14073
#        26997
#        39766
#        54687
#        69802
#        85217
#        100384
#        117431
#        134901
#        148563
#        161962
#        178873
#        192972
#        206774
#        220389
#        232638
#        248453
#        261863
#        278556
#        290082
#        303612
#
# Disc length: 4251 seconds
#
# Revision: 0
# Processed by: cddbd v1.5.2PL0 Copyright (c) Steve Scherf et al.
# Submitted via: ExactAudioCopy v1.3
#
DISCID=52109916
DTITLE=Waylon Jennings - Nashville Rebel_Disc 4 (1980-1995)
DYEAR=2006
DGENRE=Country
TTITLE0=Storms Never Last (with Jessi Colter)
TTITLE1=Shine
TTITLE2=Just to Satisfy You (with Willie Nelson)
TTITLE3=Women Do Know How to Carry on
TTITLE4=(Sittin' on) The Dock of The Bay (with Willie Nelson)
TTITLE5=Lucille (You Won't Do Your Daddy's Will)
TTITLE6=Breakin' Down
TTITLE7=Take it to The Limit (with Willie Nelson)
TTITLE8=The Conversation (with Hank Williams Jr.)
TTITLE9=I May Be Used (But Baby I Ain't Used Up)
TTITLE10=Never Could Toe The Mark
TTITLE11=America
TTITLE12=Waltz Me to Heaven
TTITLE13=Highwayman (with Highwaymen)
TTITLE14=Drinkin' And Dreamin'
TTITLE15=Working Without a Net
TTITLE16=Will The Wolf Survive
TTITLE17=What You'll Do When I'm Gone
TTITLE18=Rose in Paradise
TTITLE19=Rough and Rowdy Days
TTITLE20=Wrong
TTITLE21=I Do Believe (with Highwaymen)
EXTD=
EXTT0=
EXTT1=
EXTT2=
EXTT3=
EXTT4=
EXTT5=
EXTT6=
EXTT7=
EXTT8=
EXTT9=
EXTT10=
EXTT11=
EXTT12=
EXTT13=
EXTT14=
EXTT15=
EXTT16=
EXTT17=
EXTT18=
EXTT19=
EXTT20=
EXTT21=
PLAYORDER=
